# xmcd
#
# Track frame offsets: 
#        150
#        16786
#        36295
#        50043
#        68988
#        83706
#        100266
#        123766
#        149822
#        169599
#        183047
#        200132
#        221621
#        237762
#
# Disc length: 3353 seconds
#
# Revision: 0
# Processed by: cddbd v1.5.2PL0 Copyright (c) Steve Scherf et al.
# Submitted via: ExactAudioCopy v0.99pb4
#
DISCID=c40d170e
DTITLE=George Thorogood and The Destroyers - The Dirty Dozen
DYEAR=2009
DGENRE=Blues
TTITLE0=Tail Dragger
TTITLE1=Drop Down Mama
TTITLE2=Run Myself Out of Town
TTITLE3=Born Lover
TTITLE4=Twenty Dollar Gig
TTITLE5=Let Me Pass
TTITLE6=Howlin' For My Baby
TTITLE7=Highway 49
TTITLE8=Six Days On the Road
TTITLE9=Treat Her Right
TTITLE10=Hello Little Girl
TTITLE11=Blue Highway
TTITLE12=The Hookers (If You Miss 'Im...I Got 'Im)
TTITLE13=Mama Tain't Long Fo' Day
EXTD=
EXTT0=
EXTT1=
EXTT2=
EXTT3=
EXTT4=
EXTT5=
EXTT6=
EXTT7=
EXTT8=
EXTT9=
EXTT10=
EXTT11=
EXTT12=
EXTT13=
PLAYORDER=
